<?xml version="1.0" standalone="no"?>
<!DOCTYPE svg PUBLIC "-//W3C//DTD SVG 20010904//EN"
 "http://www.w3.org/TR/2001/REC-SVG-20010904/DTD/svg10.dtd">
<svg version="1.0" xmlns="http://www.w3.org/2000/svg"
 width="500.000000pt" height="500.000000pt" viewBox="0 0 500.000000 500.000000"
 preserveAspectRatio="xMidYMid meet">

<g transform="translate(0.000000,500.000000) scale(0.100000,-0.100000)"
fill="#000000" stroke="none">
<path d="M2448 4040 c-20 -11 -45 -33 -54 -49 -15 -25 -27 -31 -83 -42 -214
-39 -440 -138 -586 -256 l-60 -48 -50 17 c-85 30 -184 -1 -231 -72 -37 -56
-40 -146 -5 -206 l23 -41 -46 -82 c-66 -116 -121 -256 -150 -383 -6 -28 -6
-28 -96 -28 -138 0 -130 20 -130 -322 1 -236 3 -286 16 -303 13 -17 30 -21
117 -25 l102 -5 27 -78 c14 -43 51 -124 81 -181 l55 -104 -15 -43 c-17 -51
-12 -122 12 -169 33 -64 144 -110 214 -90 31 9 37 5 124 -65 141 -114 368
-218 567 -260 77 -17 89 -23 125 -61 47 -50 79 -64 146 -64 60 0 115 26 155
73 26 31 40 37 144 61 209 48 416 147 559 266 61 52 69 55 101 48 78 -17 171
25 209 93 28 50 32 129 8 175 -15 29 -15 33 7 65 13 19 40 66 59 104 31 61 46
102 76 205 7 24 11 25 97 27 170 5 164 -6 164 328 0 331 4 322 -154 327 l-78
3 -33 115 c-41 141 -62 190 -126 297 l-50 82 23 32 c19 25 23 43 23 98 0 57
-4 74 -28 109 -47 72 -130 100 -223 76 -54 -14 -58 -13 -78 5 -12 10 -69 50
-127 88 -132 87 -292 151 -469 189 -71 15 -89 24 -112 50 -16 18 -43 39 -62
48 -47 22 -141 20 -188 -4z m144 -83 c4 -6 8 -8 8 -3 0 17 39 -26 49 -55 12
-34 0 -38 -22 -6 l-16 22 6 -22 c7 -29 -3 -68 -23 -87 -18 -19 -82 -21 -118
-4 -60 27 -49 134 16 163 36 16 87 12 100 -8z m-302 -115 c0 -11 -170 -61
-176 -51 -6 11 6 16 95 40 78 21 81 21 81 11z m643 -23 c37 -11 67 -23 67 -28
0 -10 -170 37 -185 51 -12 11 21 5 118 -23z m-965 -223 c-3 -123 -4 -131 -23
-131 -19 0 -20 8 -23 129 -3 134 6 169 35 145 11 -9 13 -40 11 -143z m210 108
c14 -25 2 -54 -24 -65 -21 -7 -24 -15 -24 -58 0 -49 1 -50 75 -118 80 -74 94
-103 48 -103 -22 0 -46 19 -107 80 l-79 81 5 67 c4 56 10 73 34 100 31 35 58
41 72 16z m237 -74 c0 -78 -2 -85 -20 -85 -18 0 -20 8 -23 74 -3 86 1 104 25
99 16 -3 18 -15 18 -88z m544 67 c7 -10 8 -38 1 -98 -5 -46 -10 -85 -10 -87 0
-1 -9 2 -20 8 -16 9 -20 21 -20 65 0 29 -4 57 -10 60 -5 3 -10 14 -10 24 0 36
46 55 69 28z m-144 -60 c8 -12 15 -32 15 -45 0 -29 -42 -72 -70 -72 -31 0 -70
44 -70 79 0 61 90 88 125 38z m-995 5 c-13 -9 -40 -30 -59 -47 -19 -16 -32
-23 -29 -15 6 18 85 80 101 79 7 0 1 -8 -13 -17z m748 -274 l-3 -293 -22 -3
-23 -3 0 295 0 296 25 0 25 0 -2 -292z m-258 241 c9 -15 8 -24 -1 -35 -28 -33
-80 -3 -59 35 6 12 19 21 30 21 11 0 24 -9 30 -21z m830 -9 c0 -5 6 -7 13 -4
24 9 60 -30 60 -64 0 -50 -29 -75 -81 -69 -41 4 -44 3 -112 -67 l-70 -71 0
-176 c0 -174 0 -176 25 -199 14 -13 25 -29 25 -37 0 -22 -35 -14 -63 15 l-27
28 0 200 0 199 80 77 c60 59 81 86 86 113 7 41 64 90 64 55z m-1532 -30 c28
-17 38 -32 30 -43 -2 -2 3 -11 11 -20 9 -12 10 -17 2 -17 -6 0 -16 11 -21 25
-14 37 -18 31 -13 -19 5 -40 2 -48 -23 -71 -25 -23 -36 -26 -72 -22 -24 2 -51
12 -61 21 -42 38 -30 115 23 147 40 24 83 24 124 -1z m1981 6 c32 -17 57 -44
48 -53 -4 -3 -13 -1 -20 6 -12 9 -13 3 -9 -37 4 -44 2 -51 -23 -70 -30 -24
-66 -28 -113 -11 -31 11 -42 32 -42 84 0 75 85 119 159 81z m-911 -254 l3
-133 -23 3 c-22 3 -23 7 -26 122 -3 133 0 149 25 144 16 -3 18 -19 21 -136z
m-260 104 c6 -29 -15 -43 -35 -24 -14 14 -14 20 -3 33 16 19 34 15 38 -9z
m-608 -140 c0 -16 -342 -356 -358 -356 -42 0 -14 39 138 191 l161 162 -31 31
c-28 30 -29 33 -13 49 16 16 20 15 60 -25 24 -23 43 -47 43 -52z m1554 13
c-41 -42 -55 -47 -73 -25 -9 10 -1 23 36 59 46 45 47 45 61 26 13 -19 11 -24
-24 -60z m-1399 51 c8 -27 -12 -52 -39 -48 -21 3 -32 28 -22 54 8 22 54 18 61
-6z m130 -10 c0 -16 -6 -26 -18 -28 -19 -4 -32 20 -23 44 9 25 41 13 41 -16z
m707 -137 c-2 -76 -6 -140 -8 -142 -2 -2 -10 -1 -19 2 -12 5 -15 28 -15 131 0
109 2 126 18 135 9 6 19 11 22 11 3 0 3 -62 2 -137z m387 113 c29 -16 51 -53
51 -89 0 -30 -36 -87 -55 -87 -13 0 -15 -26 -15 -184 0 -148 -3 -186 -15 -196
-30 -25 -35 0 -35 191 0 150 -3 189 -13 189 -28 0 -62 50 -62 90 0 76 76 121
144 86z m-1588 -49 c-6 -6 -34 -12 -64 -15 -61 -5 -55 1 -129 -137 -26 -49
-48 -87 -48 -83 0 19 54 149 82 195 l32 52 68 -1 c45 -1 65 -5 59 -11z m1985
-2 c-23 -17 -36 -19 -36 -6 0 11 18 19 40 20 11 0 10 -3 -4 -14z m-1318 -97
c-2 -84 -6 -103 -18 -103 -12 0 -16 19 -18 103 -3 97 -2 102 18 102 20 0 21
-5 18 -102z m147 -4 c0 -81 -3 -99 -15 -99 -12 0 -16 17 -18 80 -3 90 3 128
21 122 8 -2 12 -34 12 -103z m1095 38 l0 -68 73 -72 c57 -57 79 -72 102 -72
39 0 58 -13 53 -36 -2 -15 -14 -20 -51 -22 -48 -3 -48 -3 -142 84 l-95 86 0
84 0 84 30 0 30 0 0 -68z m-1371 -50 c12 -22 -3 -42 -31 -42 -12 0 -18 8 -18
23 0 40 31 52 49 19z m1195 12 c20 -8 21 -48 2 -63 -33 -28 -74 27 -44 57 14
14 20 14 42 6z m-1404 -19 c10 -12 10 -18 0 -30 -25 -30 -61 -7 -46 30 3 8 12
15 19 15 8 0 20 -7 27 -15z m1439 -120 c52 -26 47 -104 -8 -123 -70 -25 -133
66 -81 118 24 24 51 25 89 5z m-1570 -4 c21 -14 5 -41 -24 -41 -29 0 -45 27
-24 41 8 5 19 9 24 9 6 0 16 -4 24 -9z m136 -46 c0 -25 -4 -30 -24 -30 -32 0
-49 28 -31 50 7 9 23 15 34 13 16 -2 21 -10 21 -33z m153 -52 c2 -8 -5 -13
-17 -13 -12 0 -21 6 -21 16 0 18 31 15 38 -3z m81 -6 c0 -8 -3 -7 -6 2 -4 11
-7 11 -14 0 -4 -7 -11 -10 -16 -6 -9 9 17 28 29 21 4 -3 8 -11 7 -17z m281
-27 c0 -13 -7 -20 -20 -20 -17 0 -20 -7 -20 -53 0 -58 -4 -68 -26 -60 -10 3
-14 22 -14 59 0 47 -2 54 -20 54 -13 0 -20 7 -20 20 0 18 7 20 60 20 53 0 60
-2 60 -20z m90 -11 c0 -27 3 -30 28 -27 21 2 28 9 30 31 2 15 9 27 18 27 11 0
14 -17 14 -75 0 -60 -3 -75 -15 -75 -9 0 -15 9 -15 25 0 21 -5 25 -30 25 -25
0 -30 -4 -30 -25 0 -18 -5 -25 -20 -25 -18 0 -20 7 -20 75 0 68 2 75 20 75 16
0 20 -7 20 -31z m260 11 c0 -17 -7 -20 -40 -20 -22 0 -40 -4 -40 -10 0 -5 11
-10 25 -10 18 0 25 -5 25 -20 0 -15 -7 -20 -26 -20 -14 0 -23 -4 -19 -10 3 -5
24 -10 46 -10 28 0 39 -4 39 -15 0 -12 -14 -15 -65 -15 l-65 0 0 75 0 75 60 0
c53 0 60 -2 60 -20z m-1115 -45 c29 -28 31 -51 9 -83 -19 -27 -78 -30 -106 -5
-21 19 -25 82 -6 101 21 21 77 14 103 -13z m-350 -45 c0 -34 -50 -42 -60 -11
-9 29 3 43 33 39 21 -2 27 -8 27 -28z m130 0 c0 -20 -6 -26 -28 -28 -18 -2
-29 2 -33 12 -11 28 4 48 33 44 22 -2 28 -8 28 -28z m2040 0 c0 -21 -5 -25
-30 -25 -33 0 -48 30 -23 46 25 17 53 6 53 -21z m125 14 c11 -12 10 -18 -3
-32 -16 -15 -18 -15 -34 0 -13 14 -14 20 -3 32 7 9 16 16 20 16 4 0 13 -7 20
-16z m98 -9 c4 -20 -15 -36 -35 -28 -17 6 -17 40 0 46 19 8 32 2 35 -18z m102
9 c11 -12 10 -18 -3 -32 -16 -15 -18 -15 -34 0 -13 14 -14 20 -3 32 7 9 16 16
20 16 4 0 13 -7 20 -16z m-1895 -19 c0 -22 -31 -33 -47 -17 -17 17 -1 44 24
40 15 -2 23 -10 23 -23z m142 12 c0 -8 -6 -14 -14 -14 -14 0 -17 10 -6 20 10
11 20 8 20 -6z m93 -2 c0 -8 -9 -15 -20 -15 -11 0 -20 7 -20 15 0 8 9 15 20
15 11 0 20 -7 20 -15z m1168 -12 c-4 -33 -37 -43 -57 -19 -20 24 -6 46 29 46
28 0 31 -3 28 -27z m-2063 -126 c4 -13 5 -50 3 -82 -3 -52 -6 -60 -23 -60 -18
0 -20 8 -23 69 -2 38 -1 75 2 83 8 21 35 15 41 -10z m90 -7 c0 -18 -6 -26 -23
-28 -13 -2 -25 3 -28 12 -10 26 4 48 28 44 17 -2 23 -10 23 -28z m157 -120
l68 -71 0 71 c0 68 1 70 25 70 l25 0 0 -125 c0 -100 -3 -125 -14 -125 -8 0
-41 30 -75 66 l-61 67 0 -44 c0 -68 -9 -91 -34 -87 -20 3 -21 9 -24 126 -2 93
0 122 10 122 7 0 43 -32 80 -70z m296 -2 l70 -72 -1 69 c-2 69 -2 70 26 73
l27 3 0 -125 c0 -96 -3 -126 -13 -126 -7 0 -42 29 -77 65 l-65 66 -5 -63 c-4
-56 -8 -63 -27 -66 -23 -3 -23 -2 -23 122 0 69 4 126 9 126 4 0 40 -32 79 -72z
m370 58 c39 -21 62 -66 62 -119 0 -42 -5 -53 -31 -78 -77 -72 -202 -32 -216
69 -7 49 19 107 56 127 32 18 98 18 129 1z m167 -72 l38 -86 31 74 c40 94 43
98 71 98 24 0 24 -1 11 -38 -17 -46 -50 -124 -74 -172 -12 -26 -24 -35 -42
-35 -21 0 -30 13 -72 110 -26 61 -48 116 -48 123 0 6 11 12 23 12 20 0 30 -13
62 -86z m425 77 c0 -34 -13 -41 -81 -41 -67 0 -69 -1 -69 -25 0 -24 3 -25 53
-25 59 0 81 -13 67 -40 -7 -14 -20 -16 -64 -12 -55 4 -56 4 -56 -22 0 -26 1
-26 69 -26 48 0 72 -4 81 -15 23 -27 0 -35 -101 -35 l-99 0 0 125 0 125 100 0
c55 0 100 -4 100 -9z m270 -4 c0 -21 -22 -37 -52 -37 l-28 0 0 -101 c0 -98 0
-100 -22 -97 -22 3 -23 8 -26 101 l-3 97 -26 0 c-26 0 -63 25 -63 42 0 4 50 8
110 8 84 0 110 -3 110 -13z m240 0 c74 -37 91 -145 31 -199 -69 -62 -174 -39
-205 44 -15 37 -15 49 -4 83 23 70 111 106 178 72z m316 -10 c34 -29 39 -94
10 -126 -19 -21 -19 -22 3 -51 45 -61 -12 -70 -61 -10 -25 32 -38 40 -58 38
-20 -2 -26 -10 -30 -38 -4 -27 -10 -35 -25 -35 -19 0 -20 8 -23 123 l-3 122
80 0 c69 0 84 -3 107 -23z m281 7 c9 -23 -15 -34 -74 -34 -45 0 -53 -3 -53
-19 0 -22 19 -31 64 -31 50 0 76 -24 76 -70 0 -53 -34 -80 -102 -80 -27 0 -58
5 -69 10 -21 12 -26 40 -6 41 6 0 37 1 67 2 48 2 55 5 55 22 0 16 -8 21 -35
23 -81 6 -122 49 -101 104 14 37 37 47 109 48 48 0 64 -4 69 -16z m-2529 -116
l-3 -113 -48 -3 c-54 -4 -84 12 -66 34 6 7 25 14 42 16 l32 3 2 65 c1 36 2 75
2 88 1 15 7 22 21 22 20 0 21 -5 18 -112z m1972 -273 c0 -62 2 -67 40 -106 22
-23 40 -44 40 -48 0 -3 -10 -12 -21 -19 -20 -13 -25 -10 -65 29 l-44 43 0 76
c0 82 3 90 32 90 16 0 18 -9 18 -65z m-1190 -118 l0 -143 -28 -27 c-28 -27
-30 -27 -168 -27 l-139 0 -37 -42 -37 -43 -21 21 -21 21 46 51 47 52 143 0
c102 0 145 4 153 13 5 6 12 57 14 112 2 55 9 112 16 128 24 57 32 28 32 -116z
m-176 112 c50 -39 24 -119 -38 -119 -60 0 -93 66 -56 113 26 32 58 35 94 6z
m604 -372 l2 -367 -25 0 -25 0 0 363 c0 200 3 367 7 371 4 4 14 5 23 4 13 -3
15 -48 18 -371z m-1083 343 c0 -18 -43 -26 -57 -12 -16 16 2 33 30 30 16 -2
27 -9 27 -18z m198 -12 c26 -30 22 -73 -9 -97 -15 -12 -34 -21 -43 -21 -23 0
-63 29 -56 41 4 5 1 9 -4 9 -17 0 -13 67 5 85 21 20 82 11 107 -17z m1235 -10
c-2 -36 -7 -44 -25 -46 -21 -3 -23 1 -23 42 0 43 2 46 26 46 23 0 25 -3 22
-42z m108 30 c4 -6 0 -16 -9 -23 -22 -16 -22 -26 1 -18 14 5 14 3 -3 -11 -17
-15 -17 -17 -2 -12 12 4 17 0 17 -13 0 -10 9 -26 20 -36 11 -10 20 -29 20 -43
0 -34 -37 -72 -69 -72 -26 0 -71 35 -71 56 0 25 23 62 41 67 14 4 19 15 20 44
1 21 2 43 4 48 1 6 3 13 3 18 3 11 20 8 28 -5z m492 -10 c3 -15 -4 -18 -37
-18 -40 0 -58 11 -46 31 11 17 79 7 83 -13z m-1098 -13 c16 -19 6 -45 -19 -45
-23 0 -35 28 -20 46 15 18 24 18 39 -1z m770 -40 c18 -21 5 -47 -22 -43 -26 3
-37 36 -16 49 18 12 24 11 38 -6z m440 -10 c0 -9 -64 -79 -142 -156 -129 -127
-168 -154 -168 -118 0 7 62 74 138 150 128 129 172 161 172 124z m110 -26 c0
-14 -55 -116 -80 -149 -38 -50 -30 -10 15 74 43 78 65 104 65 75z m-2320 -77
c56 -96 55 -92 36 -92 -15 0 -96 132 -96 158 0 27 17 8 60 -66z m1255 -118 c0
-172 -1 -179 -20 -179 -19 0 -20 8 -23 174 -2 133 1 176 10 183 29 18 33 -1
33 -178z m110 -210 c-21 -15 -19 -31 5 -46 17 -11 20 -24 20 -94 0 -61 -4 -85
-16 -94 -12 -11 -18 -11 -29 1 -11 12 -13 66 -8 316 5 266 8 303 22 305 14 3
16 -19 19 -187 2 -161 0 -192 -13 -201z m-540 376 c-4 -6 -3 -25 1 -43 7 -32
7 -32 15 -7 7 23 7 23 8 -7 1 -20 -4 -33 -11 -33 -9 0 -9 -3 0 -12 19 -19 14
-59 -10 -83 -13 -12 -105 -106 -206 -208 -100 -103 -189 -187 -197 -187 -31 0
-13 37 43 93 32 32 62 54 67 50 4 -5 5 -3 2 3 -9 16 58 78 74 69 7 -5 10 -4 6
2 -4 6 7 28 23 48 17 21 30 35 30 32 0 -3 24 19 53 50 28 31 59 64 69 74 10
11 20 14 27 8 8 -6 8 -5 1 3 -14 16 -13 158 1 158 5 0 7 -5 4 -10z m175 -139
c0 -95 1 -97 30 -123 24 -21 30 -34 30 -66 0 -32 -6 -45 -30 -65 -24 -20 -30
-34 -30 -64 0 -52 -10 -83 -25 -83 -17 0 -25 23 -25 71 0 33 -6 46 -35 73 -45
43 -49 94 -9 131 15 14 31 25 35 25 5 0 9 42 9 93 0 93 9 121 36 110 11 -4 14
-29 14 -102z m-804 55 c15 -12 17 -18 8 -33 -17 -27 -58 -24 -62 6 -2 13 2 28
10 32 18 12 21 11 44 -5z m1373 -126 l92 -90 84 0 c73 0 86 -3 95 -19 15 -29
12 -49 -9 -60 -14 -8 -25 -6 -44 9 -19 15 -41 20 -87 20 l-62 0 -93 87 c-52
47 -97 93 -100 101 -5 14 11 42 25 42 4 0 49 -40 99 -90z m196 25 c0 -25 -4
-31 -27 -33 -19 -2 -28 2 -33 18 -8 27 12 52 39 48 16 -2 21 -10 21 -33z
m-1620 -35 c24 0 85 -61 84 -84 0 -21 0 -21 -11 2 -17 33 -26 27 -24 -19 1
-33 -5 -46 -27 -65 -33 -28 -59 -30 -107 -6 -43 21 -57 70 -34 119 16 32 69
66 92 58 8 -3 20 -5 27 -5z m2030 -4 c50 -21 69 -56 63 -118 -4 -40 -11 -57
-32 -75 -15 -13 -31 -23 -37 -23 -16 0 -10 39 11 60 29 29 26 76 -6 105 -15
14 -36 25 -48 25 -29 0 -86 -36 -86 -55 0 -8 -4 -15 -10 -15 -13 0 -13 26 1
51 12 24 67 59 92 59 10 0 33 -6 52 -14z m-1665 -60 c-1 -6 -14 -26 -29 -44
-38 -44 -76 -42 -76 3 0 23 5 31 22 33 12 2 27 9 33 17 12 15 50 9 50 -9z
m1030 -136 c3 -41 8 -80 12 -86 10 -15 -19 -54 -41 -54 -9 0 -22 5 -29 12 -15
15 -16 54 -2 63 6 3 10 38 10 76 0 67 1 70 23 67 20 -3 22 -10 27 -78z m200
-7 c0 -17 -17 -17 -23 0 -4 9 -6 9 -6 -1 -1 -7 6 -15 14 -18 8 -4 15 -10 15
-16 0 -5 -4 -7 -9 -3 -5 3 -12 1 -15 -4 -4 -5 2 -12 11 -14 14 -4 13 -5 -4 -6
-18 -1 -22 4 -21 32 0 17 2 35 4 38 6 11 34 5 34 -8z m-935 -23 c14 -5 23 -15
20 -20 -4 -6 -1 -9 7 -8 8 2 14 -9 16 -28 2 -25 -3 -37 -24 -53 -33 -26 -45
-26 -78 0 -18 14 -26 30 -26 50 0 62 27 81 85 59z m907 -110 c-2 -40 12 -55
21 -22 3 9 5 -14 5 -51 -1 -56 -4 -67 -17 -65 -13 3 -17 21 -19 98 -1 52 0 91
4 87 4 -4 7 -25 6 -47z m-926 -145 c88 -24 127 -43 64 -30 -47 9 -190 55 -190
61 0 3 9 3 20 -1 11 -3 58 -17 106 -30z m413 6 c17 -16 31 -34 31 -40 0 -16
-11 -13 -27 7 -12 15 -13 14 -7 -10 19 -86 -42 -129 -135 -97 -29 10 -35 20
-43 69 -9 57 37 99 108 100 33 0 49 -6 73 -29z m386 20 c-13 -11 -143 -51
-168 -51 -34 0 -11 11 70 35 86 25 112 30 98 16z"/>
<path d="M2740 3615 c-14 -17 -7 -43 15 -51 15 -6 45 11 45 27 0 4 -7 15 -16
23 -19 20 -28 20 -44 1z"/>
<path d="M3114 3545 c-10 -25 4 -45 30 -45 27 0 42 26 25 46 -15 19 -48 18
-55 -1z"/>
<path d="M3110 3260 c-27 -27 -25 -46 5 -66 53 -35 103 27 57 69 -24 22 -38
21 -62 -3z"/>
<path d="M2246 3085 c-3 -8 -1 -15 4 -15 6 0 10 7 10 15 0 8 -2 15 -4 15 -2 0
-6 -7 -10 -15z"/>
<path d="M3311 2987 c-25 -31 20 -71 48 -42 12 12 13 19 5 33 -15 22 -38 26
-53 9z"/>
<path d="M1607 2823 c-13 -13 -7 -32 14 -44 17 -9 25 -8 37 4 8 9 12 23 9 31
-6 16 -48 22 -60 9z"/>
<path d="M2080 2540 c-30 -30 -27 -83 6 -109 35 -28 59 -26 91 5 20 20 24 31
19 57 -12 61 -76 87 -116 47z"/>
<path d="M3186 2539 c-34 -27 -35 -71 -1 -104 30 -30 54 -31 89 -4 34 27 35
71 1 104 -30 30 -54 31 -89 4z"/>
<path d="M3470 2526 l0 -36 50 0 c38 0 52 4 57 16 11 30 -11 49 -61 52 l-46 3
0 -35z"/>
<path d="M1901 2166 c-16 -20 -3 -46 24 -46 25 0 38 21 29 45 -8 19 -38 19
-53 1z"/>
<path d="M1601 2136 c-12 -15 -5 -46 11 -46 5 0 6 -5 2 -11 -4 -8 0 -7 15 1
28 15 36 36 21 55 -16 19 -34 19 -49 1z"/>
<path d="M3005 2170 c-3 -5 -1 -10 4 -10 6 0 11 5 11 10 0 6 -2 10 -4 10 -3 0
-8 -4 -11 -10z"/>
<path d="M2979 2034 c-16 -20 0 -49 27 -49 35 0 28 64 -7 65 -4 0 -12 -7 -20
-16z"/>
<path d="M2365 1754 c-33 -33 4 -92 43 -68 24 16 27 42 6 65 -21 23 -28 24
-49 3z"/>
<path d="M1456 1688 c3 -5 10 -6 15 -3 13 9 11 12 -6 12 -8 0 -12 -4 -9 -9z"/>
<path d="M2180 1546 c8 -41 44 -44 48 -5 3 23 -1 27 -26 31 -27 4 -28 3 -22
-26z"/>
</g>
</svg>
